<svg version="1.1" id="Layer_1" xmlns="http://www.w3.org/2000/svg" xmlns:xlink="http://www.w3.org/1999/xlink" x="0px" y="0px"
	 width="100%" viewBox="0 0 500 500" enable-background="new 0 0 500 500" xml:space="preserve">
<path fill="none" opacity="1.000000" stroke="none" 
	d="
M334.000000,501.000000 
	C222.666687,501.000000 111.833389,501.000000 1.000059,501.000000 
	C1.000040,334.333405 1.000040,167.666794 1.000020,1.000149 
	C167.666565,1.000099 334.333130,1.000099 500.999756,1.000050 
	C500.999847,167.666519 500.999847,334.333038 500.999939,500.999786 
	C445.500000,501.000000 390.000000,501.000000 334.000000,501.000000 
M370.006287,299.309113 
	C378.638275,287.744019 387.492218,276.336578 395.847015,264.574585 
	C406.710205,249.281158 412.160339,232.413986 409.085541,213.428406 
	C406.424164,196.995728 394.511749,184.601105 378.265411,181.707855 
	C362.044128,178.819092 347.810242,184.412643 335.631927,194.210709 
	C327.486572,200.764038 321.110229,209.516113 313.353607,216.908020 
	C311.478790,214.171265 309.558960,211.464096 307.737213,208.692490 
	C300.867004,198.240082 292.240021,189.632843 281.204651,183.620438 
	C271.385620,178.270721 260.826935,174.589172 249.701752,176.733582 
	C229.982254,180.534622 213.539261,190.279312 201.492249,206.751450 
	C198.758301,210.489624 195.963028,214.182953 192.931686,217.260834 
	C190.057663,213.199570 187.250961,209.088654 184.297058,205.086349 
	C175.368607,192.989044 163.964386,184.247803 149.610214,179.426178 
	C122.057243,170.171066 97.034981,185.048981 92.741089,213.601974 
	C90.259109,230.106293 94.367439,245.374115 103.506622,259.113037 
	C113.147446,273.606049 123.338997,287.732727 133.075104,302.695587 
	C125.201859,313.818695 117.507248,325.073669 109.413841,336.034210 
	C97.056175,352.769623 90.392189,370.894531 93.938560,392.030884 
	C97.476021,413.114136 117.051247,427.775269 138.337616,425.352142 
	C158.170166,423.094513 172.985504,412.784851 184.830750,397.402039 
	C187.559265,393.858643 190.222351,390.264862 193.506088,387.110657 
	C195.633560,390.068787 197.578674,393.180420 199.918655,395.959625 
	C213.207413,411.742767 229.396622,422.369202 250.768799,421.818115 
	C264.864868,421.454559 277.224060,415.263702 287.377228,405.847534 
	C294.847626,398.919403 300.943909,390.509644 308.001648,383.414246 
	C311.273285,388.226868 314.446899,393.109680 317.835571,397.838409 
	C326.725220,410.243469 338.275543,419.183502 352.876495,423.862823 
	C378.938477,432.215240 403.506073,418.556396 408.752594,392.639618 
	C412.368988,374.775574 408.307587,358.205536 398.582886,343.086243 
	C389.232635,328.548950 379.394470,314.325470 370.006287,299.309113 
M233.557327,157.073227 
	C238.600494,158.047684 243.612564,159.640167 248.691895,159.895782 
	C280.536346,161.498459 304.069427,134.396530 303.484070,105.998329 
	C302.842773,74.883888 271.142853,45.894176 234.999680,57.443680 
	C214.438751,64.013908 199.462280,83.039734 198.928574,102.095238 
	C198.168167,129.244339 209.352371,147.334244 233.557327,157.073227 
z"/>
<path fill="#40F8FF" opacity="1.000000" stroke="none" 
	d="
M193.195984,217.896927 
	C195.963028,214.182953 198.758301,210.489624 201.492249,206.751450 
	C213.539261,190.279312 229.982254,180.534622 249.701752,176.733582 
	C260.826935,174.589172 271.385620,178.270721 281.204651,183.620438 
	C292.240021,189.632843 300.867004,198.240082 307.737213,208.692490 
	C309.558960,211.464096 311.478790,214.171265 313.559448,217.402710 
	C282.888458,260.714050 251.966888,303.498596 221.161240,346.366425 
	C211.584518,359.693024 202.321945,373.245331 192.915558,386.694275 
	C190.222351,390.264862 187.559265,393.858643 184.830750,397.402039 
	C172.985504,412.784851 158.170166,423.094513 138.337616,425.352142 
	C117.051247,427.775269 97.476021,413.114136 93.938560,392.030884 
	C90.392189,370.894531 97.056175,352.769623 109.413841,336.034210 
	C117.507248,325.073669 125.201859,313.818695 133.438507,302.161621 
	C141.452362,290.966644 149.156891,280.343964 156.740845,269.635895 
	C168.934448,252.419235 181.048401,235.146179 193.195984,217.896927 
z"/>
<path fill="#0C366A" opacity="1.000000" stroke="none" 
	d="
M193.210815,386.902466 
	C202.321945,373.245331 211.584518,359.693024 221.161240,346.366425 
	C251.966888,303.498596 282.888458,260.714050 313.853760,217.590836 
	C321.110229,209.516113 327.486572,200.764038 335.631927,194.210709 
	C347.810242,184.412643 362.044128,178.819092 378.265411,181.707855 
	C394.511749,184.601105 406.424164,196.995728 409.085541,213.428406 
	C412.160339,232.413986 406.710205,249.281158 395.847015,264.574585 
	C387.492218,276.336578 378.638275,287.744019 369.603027,299.794373 
	C361.033295,311.147858 352.833649,321.991333 344.708038,332.890015 
	C332.329285,349.493317 320.001770,366.134827 307.652496,382.760101 
	C300.943909,390.509644 294.847626,398.919403 287.377228,405.847534 
	C277.224060,415.263702 264.864868,421.454559 250.768799,421.818115 
	C229.396622,422.369202 213.207413,411.742767 199.918655,395.959625 
	C197.578674,393.180420 195.633560,390.068787 193.210815,386.902466 
z"/>
<path fill="#289EFF" opacity="1.000000" stroke="none" 
	d="
M233.175232,156.971375 
	C209.352371,147.334244 198.168167,129.244339 198.928574,102.095238 
	C199.462280,83.039734 214.438751,64.013908 234.999680,57.443680 
	C271.142853,45.894176 302.842773,74.883888 303.484070,105.998329 
	C304.069427,134.396530 280.536346,161.498459 248.691895,159.895782 
	C243.612564,159.640167 238.600494,158.047684 233.175232,156.971375 
z"/>
<path fill="#40F8FF" opacity="1.000000" stroke="none" 
	d="
M307.827087,383.087158 
	C320.001770,366.134827 332.329285,349.493317 344.708038,332.890015 
	C352.833649,321.991333 361.033295,311.147858 369.485229,300.121887 
	C379.394470,314.325470 389.232635,328.548950 398.582886,343.086243 
	C408.307587,358.205536 412.368988,374.775574 408.752594,392.639618 
	C403.506073,418.556396 378.938477,432.215240 352.876495,423.862823 
	C338.275543,419.183502 326.725220,410.243469 317.835571,397.838409 
	C314.446899,393.109680 311.273285,388.226868 307.827087,383.087158 
z"/>
<path fill="#0D366B" opacity="1.000000" stroke="none" 
	d="
M193.063843,217.578888 
	C181.048401,235.146179 168.934448,252.419235 156.740845,269.635895 
	C149.156891,280.343964 141.452362,290.966644 133.545929,301.823547 
	C123.338997,287.732727 113.147446,273.606049 103.506622,259.113037 
	C94.367439,245.374115 90.259109,230.106293 92.741089,213.601974 
	C97.034981,185.048981 122.057243,170.171066 149.610214,179.426178 
	C163.964386,184.247803 175.368607,192.989044 184.297058,205.086349 
	C187.250961,209.088654 190.057663,213.199570 193.063843,217.578888 
z"/>
</svg>